<?xml version="1.0" encoding="UTF-8"?>
<svg version="1.1" xmlns="http://www.w3.org/2000/svg" width="50" height="50">
<path d="M0 0 C0.96164063 -0.00773438 1.92328125 -0.01546875 2.9140625 -0.0234375 C4.13222656 0.17378906 4.13222656 0.17378906 5.375 0.375 C6.035 1.365 6.695 2.355 7.375 3.375 C9.42503955 4.56732613 9.42503955 4.56732613 11.375 5.375 C11.045 8.015 10.715 10.655 10.375 13.375 C8.828125 13.3440625 8.828125 13.3440625 7.25 13.3125 C4.63593358 13.69878917 3.57490403 14.17647779 1.6796875 16.05859375 C-2.34206985 21.72745272 -4.18736858 27.62822097 -5.625 34.375 C-4.635 34.375 -3.645 34.375 -2.625 34.375 C-2.625 36.355 -2.625 38.335 -2.625 40.375 C-5.18814499 40.45632187 -7.74868418 40.51564175 -10.3125 40.5625 C-11.03373047 40.58763672 -11.75496094 40.61277344 -12.49804688 40.63867188 C-17.03518116 40.7008244 -20.14875166 40.4167173 -23.625 37.375 C-24.29413403 34.57534321 -23.86368841 32.28699859 -23.625 29.375 C-24.21667969 29.20484375 -24.80835938 29.0346875 -25.41796875 28.859375 C-30.2407329 27.3802891 -33.92355998 25.96077002 -37.625 22.375 C-38.82772819 19.96954362 -38.72571472 18.42503047 -38.6875 15.75 C-38.67847656 14.93273438 -38.66945312 14.11546875 -38.66015625 13.2734375 C-38.64855469 12.64695312 -38.63695312 12.02046875 -38.625 11.375 C-36.645 11.375 -34.665 11.375 -32.625 11.375 C-31.965 14.015 -31.305 16.655 -30.625 19.375 C-29.965 19.375 -29.305 19.375 -28.625 19.375 C-28.5425 18.488125 -28.46 17.60125 -28.375 16.6875 C-27.23952296 11.6724764 -24.84064211 9.18542808 -20.625 6.375 C-17.87388683 5.572767 -15.10389155 4.91759323 -12.31640625 4.25390625 C-9.59275788 3.53568387 -9.59275788 3.53568387 -7.62890625 1.80078125 C-4.98907042 -0.07746452 -3.20931699 -0.02595135 0 0 Z M-1.625 2.375 C-0.965 3.035 -0.305 3.695 0.375 4.375 C0.375 3.715 0.375 3.055 0.375 2.375 C-0.285 2.375 -0.945 2.375 -1.625 2.375 Z M-7.625 5.6875 C-10.4235136 7.2616639 -12.61151082 7.95721928 -15.6875 8.75 C-18.91382371 9.68821877 -20.49060809 10.25783782 -23.0625 12.5 C-25.1327563 16.3092716 -26.42944517 20.21772981 -27.625 24.375 C-24.37102492 26.63385324 -24.37102492 26.63385324 -20.625 27.375 C-20.625 30.015 -20.625 32.655 -20.625 35.375 C-19.965 35.045 -19.305 34.715 -18.625 34.375 C-18.50125 33.570625 -18.3775 32.76625 -18.25 31.9375 C-17.625 29.375 -17.625 29.375 -15.5625 28.0625 C-14.923125 27.835625 -14.28375 27.60875 -13.625 27.375 C-13.20513054 25.08663778 -13.20513054 25.08663778 -13.625 22.375 C-16.02083651 19.56168622 -16.02083651 19.56168622 -18.625 17.375 C-12.75 19.25 -12.75 19.25 -11.625 20.375 C-11.38798761 23.23377909 -11.20280818 26.07383297 -11.0625 28.9375 C-11.01931641 29.74380859 -10.97613281 30.55011719 -10.93164062 31.38085938 C-10.82524738 33.37868805 -10.72459112 35.3768207 -10.625 37.375 C-8.975 37.705 -7.325 38.035 -5.625 38.375 C-5.625 37.715 -5.625 37.055 -5.625 36.375 C-6.615 36.375 -7.605 36.375 -8.625 36.375 C-5.04022029 19.69275701 -5.04022029 19.69275701 0.375 13.375 C0.375 12.715 0.375 12.055 0.375 11.375 C2.685 11.375 4.995 11.375 7.375 11.375 C7.705 10.055 8.035 8.735 8.375 7.375 C6.725 6.385 5.075 5.395 3.375 4.375 C2.715 6.025 2.055 7.675 1.375 9.375 C0.055 9.375 -1.265 9.375 -2.625 9.375 C-2.955 7.725 -3.285 6.075 -3.625 4.375 C-5.7450186 4.19211452 -5.7450186 4.19211452 -7.625 5.6875 Z M-35.625 14.375 C-35.625 16.025 -35.625 17.675 -35.625 19.375 C-35.295 19.375 -34.965 19.375 -34.625 19.375 C-34.625 17.725 -34.625 16.075 -34.625 14.375 C-34.955 14.375 -35.285 14.375 -35.625 14.375 Z M-14.625 31.375 C-14.625 32.365 -14.625 33.355 -14.625 34.375 C-13.965 34.375 -13.305 34.375 -12.625 34.375 C-12.625 33.385 -12.625 32.395 -12.625 31.375 C-13.285 31.375 -13.945 31.375 -14.625 31.375 Z " fill="#000000" transform="translate(38.625,4.625)"/>
<path d="M0 0 C0.99 0.33 1.98 0.66 3 1 C3 1.66 3 2.32 3 3 C4.32 3.33 5.64 3.66 7 4 C8.125 7.75 8.125 7.75 7 10 C3.04 10 -0.92 10 -5 10 C-5.33 9.34 -5.66 8.68 -6 8 C-4.768606 4.30581799 -2.79208646 2.64890254 0 0 Z M2 6 C2 6.66 2 7.32 2 8 C2.66 8 3.32 8 4 8 C4 7.34 4 6.68 4 6 C3.34 6 2.68 6 2 6 Z " fill="#000000" transform="translate(6,35)"/>
</svg>
